# xmcd
#
# Track frame offsets: 
#        150
#        13111
#        34598
#        50611
#        70359
#        85878
#        106074
#        121103
#        137497
#        152447
#        169515
#        184387
#        204568
#
# Disc length: 2964 seconds
#
# Revision: 2
# Processed by: cddbd v1.5.1PL2 Copyright (c) Steve Scherf et al.
# Submitted via: ExactAudioCopy v0.95a5
#
DISCID=a40b920d
DTITLE=Fats Domino - Alive and Kickin' 
DYEAR=2006
DGENRE=R&B
TTITLE0=Alive and Kickin'
TTITLE1=Love You Till the Day I Die
TTITLE2=I'll Be All Right
TTITLE3=I Spent All My Money Loving You
TTITLE4=Give Me Some
TTITLE5=One Step at a Time
TTITLE6=Home USA
TTITLE7=Every Night About This Time
TTITLE8=Four Leaf Clover
TTITLE9=It Makes No Difference Now
TTITLE10=This Is My Story
TTITLE11=You Made a Vow
TTITLE12=Ain't That a Shame
EXTD=
EXTT0=
EXTT1=
EXTT2=
EXTT3=
EXTT4=
EXTT5=
EXTT6=
EXTT7=
EXTT8=
EXTT9=
EXTT10=
EXTT11=
EXTT12=
PLAYORDER=
